HIERARCHY
ROOT pelvis
{
  OFFSET 0 100 0
  CHANNELS 6 Xposition Yposition Zposition Zrotation Xrotation Yrotation
  JOINT pelvis_right_femur
  {
    OFFSET -10.78128 -3.44521 -0.5502486
    CHANNELS 3 Zrotation Xrotation Yrotation
    JOINT right_femur_tibia
    {
      OFFSET -0.8047443 -44.0398 -0.1307829
      CHANNELS 3 Zrotation Xrotation Yrotation
      JOINT right_tibia_foot
      {
        OFFSET 3.006224 -47.83518 -5
        CHANNELS 3 Zrotation Xrotation Yrotation
        End Site
        {
          OFFSET 0 -5 15
        }
      }
    }
  }
  JOINT pelvis_left_femur
  {
    OFFSET 10.78128 -3.44521 -0.5502486
    CHANNELS 3 Zrotation Xrotation Yrotation
    JOINT left_femur_tibia
    {
      OFFSET 0.8047443 -44.0398 -0.1307829
      CHANNELS 3 Zrotation Xrotation Yrotation
      JOINT left_tibia_foot
      {
        OFFSET -4.370144 -48.10324 -4.275266
        CHANNELS 3 Zrotation Xrotation Yrotation
        End Site
        {
          OFFSET 0 -5 15
        }
      }
    }
  }
  JOINT pelvis_spine1
  {
    OFFSET 0 6.468898 -3.129235
    CHANNELS 3 Zrotation Xrotation Yrotation
    JOINT spine1
    {
      OFFSET 0 23.15396 4.99043
      CHANNELS 3 Zrotation Xrotation Yrotation
      JOINT spine2
      {
        OFFSET 0 20.79997 -5.064912
        CHANNELS 3 Zrotation Xrotation Yrotation
        JOINT neck
        {
          OFFSET 0 14.38658 9.616178
          CHANNELS 3 Zrotation Xrotation Yrotation
          End Site
          {
            OFFSET 0 20 0
          }
        }
      }
      JOINT right_manubrium
      {
        OFFSET -5.722621 16.35077 3.967754
        CHANNELS 3 Zrotation Xrotation Yrotation
        JOINT right_clavicle
        {
          OFFSET -13.16364 1.694482 -4.693211
          CHANNELS 3 Zrotation Xrotation Yrotation
          JOINT right_humerus
          {
            OFFSET -28.5034 -0.3100689 -2.792744
            CHANNELS 3 Zrotation Xrotation Yrotation
            JOINT right_radius
            {
              OFFSET -25.15693 0.02248979 -1.271978
              CHANNELS 3 Zrotation Xrotation Yrotation
              End Site
              {
                OFFSET -15 0 0
              }
            }
          }
        }
      }
      JOINT left_manubrium
      {
        OFFSET 5.722621 16.35077 3.967754
        CHANNELS 3 Zrotation Xrotation Yrotation
        JOINT left_clavicle
        {
          OFFSET 13.16364 1.694482 -4.693211
          CHANNELS 3 Zrotation Xrotation Yrotation
          JOINT left_humerus
          {
            OFFSET 29.39168 -1.063119 -2.237045
            CHANNELS 3 Zrotation Xrotation Yrotation
            JOINT left_radius
            {
              OFFSET 24.59957 -0.9528479 0.9047498
              CHANNELS 3 Zrotation Xrotation Yrotation
              End Site
              {
                OFFSET 15 -0 -0
              }
            }
          }
        }
      }
    }
  }
}
MOTION
Frames: 23
Frame Time: 0.0416666666667
0 103.5113 0 1.389116 -2.313253 0.1309384 5.172057 -14.58578 8.417778 -0 39.70853 -0 -5.791518 -18.35925 -2.21084 -7.461923 10.99776 -22.48849 -0 6.515065 -0 19.88114 -9.568371 28.98524 -3.047873 -2.703138 4.968902 2.476497 9.958773 -7.153325 1.307463 21.80372 6.3242 3.315087 -24.56925 8.820374 6.301417 -19.35947 11.00224 85.09658 36.33509 -18.08026 -0 0 15.28054 -8.912603 8.741595 4.469641 6.269258 -20.6746 -1.684261 -93.36598 22.45633 22.06791 0 0 -12.40062 12.68181 15.69293 -0.4196059
0.5322438 104.2052 1.324531 1.011173 -0.579772 0.2351873 6.404808 -17.14493 9.580862 -0 40.44058 -0 -5.38361 -17.52391 -1.807338 -7.695832 10.43644 -22.5628 -0 7.238811 -0 20.72527 -10.18697 29.30308 -2.476289 -2.37356 4.662691 2.980835 9.557262 -7.78824 1.234563 20.77206 6.869158 3.789976 -25.75581 8.962952 6.064125 -18.86488 11.22168 85.62465 35.75515 -19.21362 -0 0 14.89321 -8.718862 9.184472 4.252827 6.961424 -21.14289 -1.04958 -93.09538 21.40367 21.05642 0 0 -13.8489 12.79217 15.18752 -1.202344
0.9775545 104.2511 3.189691 0.9847999 -1.217453 0.2613631 5.144727 -18.35149 7.070953 -0 33.52403 -0 -6.09359 -14.57571 -1.868711 -7.209977 11.51137 -21.29399 -0 6.933509 -0 15.67432 -13.76957 27.25499 -2.591404 -2.335288 4.606614 2.899177 9.673841 -7.658599 1.240948 21.05047 6.748903 3.669767 -25.45588 8.873879 6.1762 -18.76308 11.23684 85.52477 35.68786 -19.02042 -0 0 14.61416 -8.923174 9.142929 4.608169 6.635724 -20.96368 -1.334674 -92.97171 21.95183 21.0241 0 0 -13.82045 12.18739 15.19959 -0.3364525
1.371499 104.0799 5.447017 0.6847351 -0.6850407 0.247396 5.033528 -20.96168 5.831347 -0 29.23713 -0 -6.561849 -11.71541 -1.609343 -6.954202 11.91029 -20.15944 -0 7.196465 -0 12.91032 -16.24893 25.66042 -2.509228 -2.253423 4.506423 2.980503 9.618559 -7.750985 1.231022 20.93286 6.821924 3.717776 -25.60938 8.880227 6.159633 -18.60111 11.28608 85.60481 35.51198 -19.20472 -0 0 14.39599 -8.962414 9.231581 4.72699 6.65525 -20.98873 -1.304817 -92.84562 22.00356 20.75693 0 0 -14.20701 11.90624 15.09541 -0.07791471
1.725969 103.7196 8.10179 0.4028317 -0.1885223 0.2556056 5.084152 -23.4745 4.614822 -0 25.40648 -0 -7.11475 -8.873287 -1.202576 -6.751161 12.21876 -18.84037 -0 7.76884 -0 11.32006 -17.82656 24.18166 -2.409102 -2.130746 4.368039 3.07195 9.562782 -7.859084 1.212756 20.79551 6.914153 3.786213 -25.75906 8.86279 6.149015 -18.3704 11.35528 85.69586 35.28687 -19.41433 -0 0 14.07824 -9.081765 9.357799 4.932696 6.662586 -21.02072 -1.297102 -92.63726 22.06213 20.36773 0 0 -14.71354 11.50374 14.93004 0.3016046
2.043299 103.2365 11.19067 0.1259896 0.4610183 0.3150433 5.287075 -26.079 3.535957 -0 21.69604 -0 -7.639416 -6.037066 -0.7035968 -6.597756 12.49332 -17.44866 -0 8.785669 -0 10.33275 -18.95651 22.73295 -2.286587 -1.99881 4.220315 3.174007 9.492189 -7.991408 1.189514 20.6086 7.033871 3.88371 -25.93875 8.846385 6.125554 -18.1241 11.42748 85.80698 35.0563 -19.6622 -0 0 13.75655 -9.220435 9.512314 5.128188 6.718719 -21.08855 -1.259981 -92.39936 22.03331 19.91591 0 0 -15.28484 11.14855 14.73205 0.59645
2.321058 102.6646 14.77021 -0.1023565 0.9947605 0.4443401 5.470578 -28.26347 2.401154 -0 18.12728 -0 -8.245954 -3.128055 -0.1131599 -6.454229 12.79847 -15.99717 -0 10.44401 -0 9.592891 -19.56016 21.20571 -2.168661 -1.862835 4.070682 3.265239 9.430779 -8.118653 1.163202 20.42674 7.152817 3.98541 -26.08537 8.815918 6.104762 -17.8718 11.49828 85.91544 34.83363 -19.89795 -0 0 13.42315 -9.401482 9.676148 5.345799 6.774402 -21.16413 -1.23655 -92.13184 21.98554 19.43455 0 0 -15.86553 10.79181 14.51386 0.8950877
2.553241 102.0698 18.89868 -0.3036022 1.337365 0.650344 5.63917 -29.77793 1.23658 -0 14.96093 -0 -8.991131 -0.1453599 0.5484599 -6.273269 13.11638 -14.54381 -0 13.01361 -0 8.76821 -19.59403 19.50379 -2.068011 -1.727019 3.930373 3.334255 9.391774 -8.226411 1.133752 20.27231 7.258306 4.083453 -26.16894 8.763265 6.092131 -17.62889 11.56488 86.00998 34.63725 -20.09333 -0 0 13.09376 -9.631738 9.836222 5.582312 6.815572 -21.24026 -1.241211 -91.84459 21.91558 18.95426 0 0 -16.40009 10.45291 14.2825 1.183862
2.733836 101.5452 23.60957 -0.509692 1.360666 0.9182012 5.844862 -30.28982 0.100045 -0 12.55959 -0 -9.923246 2.767452 1.232381 -5.989146 13.36377 -13.12805 -0 16.77246 -0 7.641252 -18.90254 17.58668 -1.996942 -1.590847 3.807181 3.371862 9.38969 -8.300511 1.100933 20.17091 7.33592 4.167391 -26.15923 8.677919 6.095128 -17.40448 11.62757 86.07913 34.47589 -20.22109 -0 0 12.77245 -9.920635 9.97962 5.845482 6.818041 -21.30395 -1.294135 -91.54471 21.83751 18.50294 0 0 -16.83931 10.12327 14.04128 1.483134
2.860971 101.2193 28.88354 -0.7683473 1.014248 1.201901 6.205238 -29.58482 -0.8619195 -0 11.22222 -0 -11.01264 5.274763 1.841675 -5.536584 13.34872 -11.78707 -0 21.93726 -0 6.117479 -17.35422 15.48803 -1.964865 -1.452212 3.709679 3.369951 9.437023 -8.328135 1.064018 20.14255 7.374277 4.230611 -26.03088 8.549742 6.118977 -17.20797 11.68758 86.11037 34.35761 -20.25281 -0 0 12.46766 -10.27937 10.09466 6.140907 6.762949 -21.34441 -1.410963 -91.2398 21.75176 18.10727 0 0 -17.1334 9.803168 13.79083 1.797764
2.941173 101.2337 34.62403 -1.104015 0.324928 1.418979 6.795426 -27.59562 -1.516534 -0 10.97178 -0 -12.13358 6.909209 2.243958 -4.889938 12.7601 -10.53371 -0 28.54921 -0 4.293814 -14.92847 13.34915 -1.979073 -1.309446 3.646921 3.321011 9.542619 -8.29666 1.022878 20.20353 7.363779 4.26772 -25.76396 8.37115 6.16618 -17.04944 11.74588 86.08793 34.28718 -20.15656 -0 0 12.19269 -10.71886 10.17064 6.475537 6.634435 -21.34942 -1.602724 -90.93918 21.65975 17.79466 0 0 -17.23761 9.490198 13.5318 2.134035
2.991124 101.6983 40.65616 -1.473932 -0.5755608 1.469909 7.535378 -24.45933 -1.835627 -0 11.39781 -0 -13.09268 7.262074 2.334075 -4.111766 11.20725 -9.361949 -0 36.34193 -0 2.441486 -11.84977 11.39532 -2.04422 -1.163132 3.629462 3.21697 9.709522 -8.192994 0.9783425 20.36417 7.297984 4.275968 -25.34528 8.138757 6.234821 -16.94159 11.80186 85.99035 34.26784 -19.89327 -0 0 11.97116 -11.25066 10.19854 6.856833 6.424163 -21.30628 -1.872332 -90.65428 21.55989 17.59298 0 0 -17.11387 9.185366 13.26612 2.491738
3.033574 102.6327 46.76306 -1.735616 -1.507766 1.286915 8.149966 -20.46092 -1.942033 -0 11.72265 -0 -13.7343 6.263027 2.132589 -3.361388 8.355526 -8.26974 -0 44.63504 -0 0.9055622 -8.630943 9.873044 -2.161422 -1.018115 3.669186 3.049262 9.931784 -8.004016 0.9328171 20.62626 7.174886 4.255442 -24.77202 7.855918 6.316909 -16.90035 11.85207 85.7892 34.30065 -19.41603 -0 0 11.84007 -11.88518 10.17221 7.292852 6.134735 -21.20204 -2.210776 -90.39918 21.45086 17.52947 0 0 -16.73767 8.89212 12.99887 2.865584
3.085965 103.9312 52.74809 -1.693856 -2.362428 0.8839269 8.309822 -15.89493 -2.027306 -0 11.21841 -0 -14.04685 4.334769 1.811063 -2.80472 4.125666 -7.296234 -0 52.31513 -0 -0.05778454 -5.91969 8.986917 -2.327035 -0.8847579 3.77844 2.809383 10.19169 -7.718009 0.8903674 20.97981 6.998812 4.209884 -24.05526 7.534349 6.396952 -16.9444 11.88918 85.44992 34.38445 -18.67213 -0 0 11.85052 -12.6308 10.09005 7.791697 5.783858 -21.0257 -2.593629 -90.18923 21.33082 17.62644 0 0 -16.10616 8.618056 12.73899 3.242564
3.148708 105.3816 58.47899 -1.257897 -3.190107 0.3580666 7.905065 -10.95536 -2.189978 -0 9.760618 -0 -14.17003 2.176824 1.552821 -2.445287 -1.164683 -6.501545 -0 57.93618 -0 -0.387355 -4.162654 8.873441 -2.531427 -0.7788092 3.96772 2.490935 10.45842 -7.327877 0.8562188 21.40033 6.782045 4.146932 -23.22329 7.194451 6.451669 -17.09236 11.90188 84.93658 34.5148 -17.61118 -0 0 12.06264 -13.49203 9.95707 8.360291 5.406494 -20.77179 -2.979858 -90.03794 21.19692 17.89418 0 0 -15.2477 8.374927 12.49872 3.601353
3.208493 106.7287 63.88501 -0.6062106 -4.123184 -0.1702991 7.224113 -5.807589 -2.335194 -0 7.996828 -0 -14.29516 0.2063811 1.364038 -2.01155 -6.856323 -5.854558 -0 59.95824 -0 -0.1785456 -3.320541 9.569973 -2.758459 -0.7185429 4.242007 2.093103 10.69088 -6.835811 0.8354275 21.84867 6.545139 4.077675 -22.322 6.862846 6.452366 -17.35731 11.87651 84.22201 34.68176 -16.20045 -0 0 12.53243 -14.46723 9.78602 9.001973 5.052309 -20.44477 -3.316067 -89.95211 21.04348 18.32226 0 0 -14.22759 8.177329 12.29051 3.913498
3.26017 107.7382 68.93897 -0.1496615 -5.164525 -0.6450421 6.788279 -0.771083 -2.263842 -0 6.8379 -0 -14.52386 -1.859454 1.060736 -1.067911 -12.19349 -5.161522 -0 57.19256 -0 0.4540517 -2.904632 10.95532 -2.986538 -0.7187295 4.596444 1.625108 10.84641 -6.25817 0.8311218 22.27574 6.314486 4.014972 -21.41049 6.566891 6.371405 -17.73943 11.8012 83.30231 34.86642 -14.44644 -0 0 13.2912 -15.54466 9.596405 9.712558 4.775658 -20.06151 -3.548189 -89.92807 20.86154 18.87477 0 0 -13.1432 8.037997 12.12189 4.149779
3.323796 108.241 73.67257 -0.2323028 -6.090786 -1.115816 6.899973 3.712055 -1.881243 -0 6.712599 -0 -14.79071 -4.743801 0.4696205 0.6139881 -16.57618 -4.238517 -0 49.46867 -0 1.434976 -2.350237 12.73101 -3.191902 -0.7828706 5.013048 1.10968 10.8948 -5.627935 0.8431394 22.63295 6.116599 3.970634 -20.55141 6.327371 6.192551 -18.21951 11.67195 82.21127 35.03851 -12.41584 -0 0 14.32366 -16.6966 9.410478 10.47544 4.618941 -19.6495 -3.638959 -89.95221 20.64181 19.4945 0 0 -12.10378 7.960213 11.9904 4.291751
3.435696 108.1644 78.20735 -0.81879 -6.629528 -1.662919 7.324016 7.411547 -1.303717 -0 7.369903 -0 -14.93426 -8.778451 -0.3572665 2.693472 -19.67094 -3.23706 -0 38.15286 -0 2.62246 -1.432159 14.51138 -3.353816 -0.8975385 5.460344 0.5828785 10.83199 -4.992188 0.8678656 22.88555 5.970604 3.952246 -19.7983 6.152358 5.921572 -18.757 11.49823 81.0274 35.15953 -10.24506 -0 0 15.55476 -17.87417 9.247566 11.25804 4.595724 -19.2407 -3.584135 -90.00648 20.38097 20.11647 0 0 -11.20052 7.930922 11.88203 4.343935
3.628434 107.5535 82.74245 -1.498247 -6.728489 -2.291096 7.447283 10.5225 -0.7777299 -0 8.392498 -0 -14.82641 -13.31002 -1.122732 4.348498 -21.40175 -2.695035 -0 25.86741 -0 3.706239 -0.3800127 15.9884 -3.459805 -1.032924 5.896915 0.08873577 10.68583 -4.404359 0.899302 23.02276 5.882637 3.961122 -19.18477 6.0353 5.590837 -19.29466 11.30431 79.86664 35.1931 -8.128188 -0 0 16.85409 -19.00809 9.119857 12.01282 4.683243 -18.86486 -3.418442 -90.07441 20.08733 20.68278 0 0 -10.48278 7.920316 11.77503 4.337949
3.923337 106.565 87.49084 -1.810228 -6.615058 -2.932779 6.762619 13.43482 -0.5074913 -0 9.765548 -0 -14.43826 -16.9612 -1.474759 4.830609 -21.86009 -3.147398 -0 15.35164 -0 4.306966 0.3652309 17.05398 -3.508238 -1.150469 6.278122 -0.3297468 10.50913 -3.914123 0.9306405 23.05901 5.845548 3.992661 -18.72027 5.958448 5.25346 -19.7689 11.12452 78.85996 35.11777 -6.28248 -0 0 18.05932 -20.0192 9.031986 12.68453 4.830002 -18.54607 -3.206615 -90.14294 19.78099 21.14971 0 0 -9.955234 7.890524 11.64708 4.323227
4.329702 105.4322 92.60955 -1.552501 -6.612047 -3.505382 5.200212 16.32957 -0.5306671 -0 11.92153 -0 -13.87805 -18.44552 -1.238933 3.942124 -21.1767 -4.712967 -0 8.317315 -0 4.205054 0.4830232 17.78831 -3.506759 -1.214108 6.563895 -0.6392745 10.36275 -3.559146 0.9556113 23.02519 5.844178 4.039057 -18.39408 5.899901 4.968512 -20.12193 10.99378 78.12393 34.93362 -4.902862 -0 0 19.01077 -20.8356 8.983796 13.22155 4.975061 -18.30303 -3.023317 -90.19966 19.48732 21.48556 0 0 -9.595654 7.80958 11.482 4.348123
4.837686 104.4146 98.15704 -0.8252046 -6.930953 -3.930662 3.080981 19.01245 -0.7411945 -0 15.3678 -0 -13.394 -17.19716 -0.5048871 2.042465 -19.47169 -7.055311 -0 5.07854 -0 3.465062 -0.0827432 18.35263 -3.467631 -1.19991 6.725239 -0.8211313 10.29692 -3.361299 0.9693616 22.95508 5.862942 4.092841 -18.18486 5.840972 4.784094 -20.31165 10.93776 77.73679 34.65888 -4.123868 -0 0 19.58441 -21.40842 8.973658 13.58641 5.06907 -18.15058 -2.931261 -90.22937 19.22783 21.66473 0 0 -9.380207 7.663194 11.273 4.441703
